<svg width="138" height="26" viewBox="0 0 138 26" fill="none" xmlns="http://www.w3.org/2000/svg">
<path d="M3.06 25L0.216 0.879999H8.532L9.684 16.576H10.332L11.952 1.24H21.06L22.86 16.576H23.508L24.228 0.879999H32.616L29.952 25H17.748L16.56 10.168L16.2 10.132L14.976 25H3.06ZM33.7042 19.204V12.688H44.4322V19.204H33.7042ZM58.7405 25H50.3885V17.44L43.5125 0.879999H52.3685L54.6365 7.972L56.9765 0.879999H65.7965L58.7405 17.44V25ZM65.0723 8.62C66.6803 7.108 69.0923 6.352 72.3083 6.352C75.5243 6.352 77.9243 7.108 79.5083 8.62C81.1163 10.108 81.9203 12.544 81.9203 15.928C81.9203 19.312 81.1163 21.748 79.5083 23.236C77.9243 24.724 75.5243 25.468 72.3083 25.468C69.0923 25.468 66.6803 24.724 65.0723 23.236C63.4883 21.748 62.6963 19.312 62.6963 15.928C62.6963 12.544 63.4883 10.108 65.0723 8.62ZM71.1562 18.304C71.3723 18.736 71.7563 18.952 72.3083 18.952C72.8603 18.952 73.2443 18.736 73.4603 18.304C73.6763 17.872 73.7843 17.08 73.7843 15.928C73.7843 14.752 73.6763 13.948 73.4603 13.516C73.2443 13.084 72.8603 12.868 72.3083 12.868C71.7563 12.868 71.3723 13.084 71.1562 13.516C70.9403 13.948 70.8323 14.752 70.8323 15.928C70.8323 17.08 70.9403 17.872 71.1562 18.304ZM94.1766 6.82H102.241V25H94.2486V24.136C92.7126 25.024 91.3446 25.468 90.1446 25.468C87.6006 25.468 85.8246 24.736 84.8166 23.272C83.8086 21.784 83.3046 19.432 83.3046 16.216V6.82H91.3686V15.676C91.3686 16.756 91.4646 17.5 91.6566 17.908C91.8486 18.316 92.1606 18.52 92.5926 18.52L94.1766 18.304V6.82ZM104.298 19.204V12.688H115.026V19.204H104.298ZM127.57 18.772H125.518V25H117.166V0.879999H127.318C131.038 0.879999 133.702 1.504 135.31 2.752C136.918 3.976 137.722 6.268 137.722 9.628C137.722 12.964 136.834 15.352 135.058 16.792L137.434 25H128.938L127.57 18.772ZM127.534 12.184C128.71 12.184 129.298 11.404 129.298 9.844C129.298 8.26 128.638 7.468 127.318 7.468H125.482V12.184H127.534Z" fill="#D6D5C9"/>
</svg>
