<svg width="66" height="66" viewBox="0 0 66 66" fill="none" xmlns="http://www.w3.org/2000/svg">
<path d="M33 5.5C18.0922 5.5 5.5 18.0922 5.5 33C5.5 47.9077 18.0922 60.5 33 60.5C47.9077 60.5 60.5 47.9077 60.5 33C60.5 18.0922 47.9077 5.5 33 5.5ZM33 19.25C37.7492 19.25 41.25 22.748 41.25 27.5C41.25 32.252 37.7492 35.75 33 35.75C28.2535 35.75 24.75 32.252 24.75 27.5C24.75 22.748 28.2535 19.25 33 19.25ZM18.9585 46.123C21.4253 42.493 25.5392 40.073 30.25 40.073H35.75C40.4635 40.073 44.5748 42.493 47.0415 46.123C43.527 49.885 38.5413 52.25 33 52.25C27.4587 52.25 22.473 49.885 18.9585 46.123Z" fill="#D6D5C9"/>
</svg>
